<svg width="512" height="512" viewBox="0 0 512 512" fill="none" xmlns="http://www.w3.org/2000/svg">
<g clip-path="url(#clip0_4_12)">
<rect width="512" height="512" fill="#F3F4F6"/>
<path d="M288 205H224L160 141V275.4C160 328.42 202.98 371.4 256 371.4C309.02 371.4 352 328.42 352 275.4V141L288 205ZM216 285C207.16 285 200 277.84 200 269C200 260.16 207.16 253 216 253C224.84 253 232 260.16 232 269C232 277.84 224.84 285 216 285ZM296 285C287.16 285 280 277.84 280 269C280 260.16 287.16 253 296 253C304.84 253 312 260.16 312 269C312 277.84 304.84 285 296 285Z" fill="#B9BECA"/>
</g>
<defs>
<clipPath id="clip0_4_12">
<rect width="512" height="512" fill="white"/>
</clipPath>
</defs>
</svg>
