<svg width="1342" height="1565" viewBox="0 0 1342 1565" xmlns="http://www.w3.org/2000/svg">
<path fill-rule="evenodd" clip-rule="evenodd" d="M664.923 1.23796C665.162 1.16475 665.404 1.10128 665.688 1.01603C674.127 -1.51697 677.942 0.299026 696.239 15.563C703.532 21.648 732.45 45.701 760.5 69.015C788.55 92.329 827.25 124.498 846.5 140.502C951.833 228.074 984.501 255.228 1003.5 270.999C1015.05 280.588 1049.7 309.39 1080.5 335.005C1111.3 360.619 1151.12 393.733 1169 408.59C1252.88 478.309 1322.25 535.983 1329.76 542.235C1339.8 550.599 1342.41 555.025 1341.78 562.61C1341.2 569.664 1337.91 574.358 1331.26 577.641C1326.94 579.769 1325.21 580.109 1321.5 579.552C1316.16 578.752 1315.31 578.13 1284.5 552.515L1280.25 548.984C1265.43 536.661 1235.83 512.048 1210.5 490.992C1182.45 467.671 1142.17 434.191 1121 416.592C1099.83 398.992 1064.05 369.252 1041.5 350.503C948.703 273.347 909.968 241.148 881.5 217.499C865 203.793 826.3 171.624 795.5 146.014C764.7 120.404 724.488 86.973 706.14 71.725C687.793 56.476 672.043 44 671.14 44.001C670.238 44.002 659.36 52.439 646.967 62.751C634.573 73.063 613.873 90.268 600.967 100.984C588.06 111.699 548.25 144.791 512.5 174.521C416.44 254.404 362.423 299.316 326 329.582C272.587 373.967 198.586 435.486 79.544 534.466C53.168 556.397 30.12 575.336 28.328 576.552C13.386 586.692 -5.88203 569.782 2.01797 553.462C3.54797 550.303 8.69598 545.422 23.268 533.318C43.622 516.412 131.421 443.429 206.5 381.006C231.25 360.429 266.125 331.442 284 316.592C301.875 301.742 336.3 273.127 360.5 253.003C409.459 212.291 460.493 169.866 523.5 117.501C546.6 98.302 585.3 66.137 609.5 46.023C660.137 3.93409 662.358 2.02439 664.923 1.23796ZM1259.5 599.55C1268.3 596.409 1276.4 593.456 1277.5 592.987C1278.6 592.519 1279.84 592.105 1280.25 592.068C1280.66 592.03 1281 810.925 1281 1078.5V1565H741.582H202.163L206.902 1556.25C209.508 1551.44 214.139 1542.78 217.192 1537C220.246 1531.22 225.336 1521.78 228.504 1516C234.191 1505.63 235.784 1502.7 244.792 1486C247.314 1481.32 252.667 1471.75 256.688 1464.72C260.71 1457.7 264 1451.76 264 1451.53C264 1450.12 298.334 1392.32 318.665 1359.5C326.639 1346.63 350.809 1309.39 355.984 1302C357.718 1299.53 361.775 1293.68 365 1289C368.225 1284.32 372.357 1278.34 374.182 1275.7C389.087 1254.13 424.353 1207.25 443.913 1183C534.979 1070.12 636.836 973.514 755.5 887.489C785.786 865.533 872.73 807.132 906.737 785.902C909.907 783.923 922.85 775.769 935.5 767.782C981.157 738.955 1042.2 703.041 1083 681.002C1089.88 677.288 1098.2 672.781 1101.5 670.987C1124.35 658.558 1172.3 635.377 1199 623.851C1209.18 619.458 1218.4 615.458 1219.5 614.962C1225.57 612.229 1245.53 604.536 1259.5 599.55ZM899.627 1036.5C893.088 1005.07 877.745 981.64 857.701 972.464C851.268 969.518 840.164 968.405 833.618 970.049C815.43 974.616 797.878 994.618 789.58 1020.23C784.079 1037.22 783.5 1041.29 783.5 1063C783.5 1084.76 784.068 1088.73 789.652 1106C798.369 1132.96 816.333 1152.54 835.615 1156.11C846.078 1158.04 854.869 1156.05 865.167 1149.43C880.552 1139.54 893.346 1117.68 899.301 1091.1C902.247 1077.95 902.415 1049.9 899.627 1036.5ZM1041.44 1020.38C1033.6 996.963 1021.73 981.424 1005.57 973.439C999.695 970.534 996.981 969.806 990.929 969.51C981.652 969.057 980.163 969.364 971.4 973.545C955.487 981.135 941.49 1000.48 934.532 1024.49C922.039 1067.6 932.109 1118.06 958.226 1143.22C965.551 1150.28 975.685 1155.54 983.762 1156.47C1030.3 1161.87 1062.98 1084.77 1041.44 1020.38ZM1169.37 1144C1160.22 1110.23 1141.17 1087.2 1118.88 1082.98C1103.63 1080.09 1090.25 1084.77 1077.42 1097.48C1064.16 1110.62 1056.41 1126.09 1050.8 1150.63C1048.86 1159.11 1048.55 1163.32 1048.55 1180.5C1048.55 1197.73 1048.86 1201.88 1050.82 1210.47C1056.38 1234.79 1063.44 1249.23 1076.44 1262.85C1107.63 1295.53 1149.74 1277.8 1167.11 1224.65C1170.73 1213.58 1174 1192.93 1174 1181.09C1174 1171.35 1171.62 1152.32 1169.37 1144ZM763.8 1138C757.294 1117.19 744.783 1100.61 730.5 1093.84C725.423 1091.44 723.269 1091.01 716.5 1091.05C707.727 1091.09 703.025 1092.39 696.833 1096.49C688.819 1101.79 679.779 1112.62 674.199 1123.6C670.53 1130.81 665.888 1145.83 663.929 1156.82C661.755 1169.03 661.348 1190.84 663.116 1200.44C667.082 1221.97 672.877 1237.47 681.451 1249.48C695.971 1269.83 716.483 1276.15 733.802 1265.61C758.826 1250.39 773.181 1211.55 769.88 1168C768.965 1155.92 768.154 1151.92 763.8 1138ZM1001.18 1236.28C974.144 1216.89 939.47 1204.76 903.043 1201.94C888.154 1200.79 883.058 1200.89 874.5 1202.5C853.002 1206.54 829.736 1221.28 803.467 1247.49C775.728 1275.17 752.105 1308.56 740.645 1336.27C735.417 1348.91 733.875 1382.07 737.787 1397.73C743.675 1421.3 757.366 1436.39 779.5 1443.69C786.433 1445.98 789.167 1446.33 800 1446.32C813.122 1446.32 823.823 1444.22 839.903 1438.5C850.121 1434.87 871.74 1428.38 879.5 1426.62C883.35 1425.75 891.85 1424.53 898.389 1423.9C922.962 1421.55 944.47 1425.65 988.5 1441.06C1000.85 1445.39 1003.12 1446.05 1021 1450.52C1029.62 1452.67 1033.3 1453.09 1041.53 1452.82C1050.53 1452.53 1052.25 1452.16 1058.35 1449.15C1066.18 1445.29 1075.35 1436.79 1079.21 1429.8C1085.04 1419.24 1086.47 1412.73 1086.41 1397C1086.35 1379.32 1084.01 1367.41 1075.49 1341.5C1059.97 1294.27 1037.31 1262.17 1001.18 1236.28Z"/>
<path fill-rule="evenodd" clip-rule="evenodd" d="M669.589 83.856C669.042 84.741 662.377 90.232 573.5 163.017C544.35 186.889 511.725 213.633 501 222.448C490.275 231.263 458.967 256.931 431.426 279.488C403.885 302.044 365.185 333.754 345.426 349.954C325.667 366.153 288.575 396.552 263 417.506C237.425 438.46 194 474.05 166.5 496.593C139 519.137 104.191 547.659 89.147 559.977C74.103 572.294 61.613 582.851 61.391 583.436C61.17 584.021 61.104 770.35 61.244 997.5L61.5 1410.5L67.902 1401C146.258 1284.74 261.074 1162.83 408 1039.91C423.169 1027.21 468.173 990.963 480.25 981.706C485.063 978.018 492.935 971.962 497.744 968.25C524.365 947.701 571.82 912.872 600.985 892.478C618.081 880.523 668.794 846.618 683.114 837.569C698.527 827.829 706.299 822.892 710 820.491C724.531 811.061 798.687 767.938 817.5 757.977C821.9 755.648 831.35 750.577 838.5 746.709C854.02 738.313 909.985 710.067 922 704.566C926.675 702.425 935.9 698.115 942.5 694.988C949.1 691.861 956.075 688.607 958 687.757C967.007 683.779 971.926 681.582 977 679.272C980.025 677.895 986.1 675.218 990.5 673.324C994.9 671.429 999.4 669.477 1000.5 668.984C1007.07 666.041 1042.24 651.634 1051.5 648.09C1057.55 645.775 1063.85 643.283 1065.5 642.552C1069.83 640.636 1122.86 621.333 1133.5 617.8C1138.45 616.158 1146.1 613.556 1150.5 612.02C1154.9 610.484 1162.55 607.992 1167.5 606.483C1172.45 604.974 1179.88 602.636 1184 601.286C1193.76 598.092 1221.22 590.059 1234.5 586.508C1237.25 585.773 1243.1 584.184 1247.5 582.977C1251.9 581.77 1259.21 579.892 1263.75 578.803C1268.29 577.715 1272 576.502 1272 576.108C1272 575.714 1246.49 554.491 1215.31 528.946C1184.12 503.401 1138.11 465.694 1113.06 445.154C1051.85 394.975 1034.16 380.477 975 332.005C947.225 309.247 913.25 281.392 899.5 270.105C885.75 258.819 857.625 235.769 837 218.883C793.135 182.972 767.465 161.937 711.848 116.333C689.49 98 670.954 83 670.657 83C670.361 83 669.88 83.385 669.589 83.856ZM507.5 557.5L507.244 477.25L506.988 397H432.494H358V477.494V557.988L277.75 558.244L197.5 558.5V632.5V706.5L277.744 706.756L357.988 707.012L358.244 787.256L358.5 867.5L432.744 867.756L506.988 868.013L507.244 787.756L507.5 707.5L587.75 707.244L668 706.988V632.5V558.012L587.75 557.756L507.5 557.5Z" fill="black"/>
</svg>
