<svg width="512" height="512" viewBox="0 0 512 512" fill="none" xmlns="http://www.w3.org/2000/svg">
<g clip-path="url(#clip0_106_15)">
<rect width="512" height="512" fill="#F3F4F6"/>
<path fill-rule="evenodd" clip-rule="evenodd" d="M254.698 141.172C254.733 141.161 254.768 141.152 254.81 141.139C256.05 140.767 256.611 141.034 259.3 143.277C260.372 144.172 264.622 147.707 268.745 151.133C272.867 154.56 278.555 159.288 281.384 161.64C296.865 174.51 301.666 178.501 304.459 180.819C306.156 182.228 311.249 186.461 315.776 190.226C320.302 193.991 326.155 198.857 328.783 201.041C341.11 211.288 351.306 219.764 352.409 220.683C353.885 221.912 354.269 222.563 354.176 223.677C354.091 224.714 353.607 225.404 352.629 225.887C351.996 226.199 351.741 226.249 351.196 226.167C350.411 226.05 350.286 225.958 345.758 222.194L345.133 221.675C342.955 219.864 338.604 216.246 334.882 213.152C330.759 209.724 324.84 204.804 321.728 202.217C318.616 199.63 313.358 195.259 310.044 192.504C296.405 181.164 290.712 176.432 286.528 172.956C284.103 170.942 278.415 166.214 273.889 162.45C269.362 158.686 263.452 153.772 260.755 151.531C258.059 149.29 255.744 147.457 255.611 147.457C255.479 147.457 253.88 148.697 252.059 150.212C250.237 151.728 247.195 154.257 245.298 155.832C243.401 157.406 237.55 162.27 232.296 166.639C218.178 178.38 210.239 184.981 204.886 189.429C197.036 195.952 186.159 204.994 168.664 219.541C164.787 222.764 161.4 225.548 161.136 225.726C158.94 227.217 156.109 224.731 157.27 222.333C157.494 221.869 158.251 221.151 160.393 219.372C163.384 216.888 176.288 206.161 187.323 196.987C190.96 193.963 196.086 189.702 198.713 187.52C201.34 185.337 206.399 181.132 209.956 178.174C217.152 172.191 224.652 165.955 233.913 158.259C237.308 155.437 242.995 150.71 246.552 147.754C253.994 141.568 254.321 141.287 254.698 141.172ZM342.083 229.107C343.377 228.645 344.567 228.211 344.729 228.142C344.891 228.073 345.073 228.012 345.133 228.007C345.194 228.001 345.243 260.173 345.243 299.498V371H265.964H186.685L187.382 369.714C187.765 369.007 188.445 367.734 188.894 366.885C189.343 366.036 190.091 364.647 190.557 363.798C191.392 362.275 191.627 361.844 192.95 359.389C193.321 358.702 194.108 357.295 194.699 356.262C195.29 355.23 195.773 354.357 195.773 354.323C195.773 354.116 200.82 345.621 203.808 340.797C204.98 338.906 208.532 333.433 209.292 332.347C209.547 331.983 210.144 331.123 210.618 330.436C211.092 329.749 211.699 328.869 211.967 328.481C214.158 325.311 219.341 318.42 222.216 314.857C235.6 298.266 250.57 284.069 268.01 271.425C272.461 268.198 285.239 259.615 290.237 256.495C290.703 256.204 292.606 255.006 294.465 253.832C301.175 249.595 310.146 244.317 316.143 241.078C317.153 240.532 318.377 239.869 318.862 239.606C322.221 237.779 329.268 234.372 333.192 232.678C334.687 232.032 336.043 231.445 336.205 231.372C337.096 230.97 340.03 229.839 342.083 229.107ZM289.192 293.326C288.231 288.707 285.976 285.263 283.03 283.914C282.085 283.481 280.453 283.318 279.491 283.559C276.818 284.23 274.238 287.17 273.019 290.935C272.21 293.431 272.125 294.03 272.125 297.22C272.125 300.419 272.209 301.002 273.029 303.54C274.31 307.502 276.951 310.38 279.784 310.904C281.322 311.189 282.614 310.897 284.128 309.924C286.389 308.47 288.269 305.257 289.144 301.351C289.577 299.418 289.602 295.295 289.192 293.326ZM310.034 290.957C308.883 287.515 307.138 285.231 304.764 284.057C303.9 283.631 303.501 283.524 302.611 283.48C301.248 283.413 301.029 283.459 299.741 284.073C297.402 285.189 295.345 288.031 294.322 291.56C292.486 297.896 293.966 305.312 297.805 309.01C298.881 310.047 300.371 310.82 301.558 310.958C308.398 311.752 313.201 300.42 310.034 290.957ZM328.837 309.125C327.493 304.162 324.692 300.778 321.416 300.156C319.175 299.731 317.209 300.419 315.323 302.288C313.375 304.219 312.236 306.493 311.411 310.099C311.126 311.345 311.079 311.965 311.079 314.49C311.079 317.022 311.126 317.632 311.414 318.894C312.231 322.469 313.269 324.59 315.179 326.592C319.763 331.396 325.952 328.789 328.505 320.979C329.037 319.352 329.517 316.316 329.517 314.576C329.517 313.145 329.168 310.348 328.837 309.125ZM269.23 308.243C268.274 305.185 266.435 302.747 264.336 301.753C263.589 301.4 263.273 301.337 262.278 301.342C260.989 301.349 260.298 301.54 259.387 302.143C258.21 302.922 256.881 304.513 256.061 306.126C255.522 307.187 254.839 309.394 254.552 311.01C254.232 312.803 254.172 316.009 254.432 317.42C255.015 320.584 255.867 322.862 257.127 324.628C259.261 327.619 262.275 328.548 264.821 326.999C268.499 324.761 270.608 319.053 270.123 312.652C269.989 310.877 269.87 310.289 269.23 308.243ZM304.118 322.687C300.144 319.839 295.048 318.056 289.694 317.641C287.506 317.471 286.757 317.486 285.499 317.722C282.34 318.317 278.92 320.483 275.06 324.336C270.983 328.404 267.511 333.31 265.827 337.383C265.058 339.241 264.832 344.115 265.407 346.416C266.272 349.881 268.284 352.098 271.537 353.171C272.556 353.507 272.958 353.559 274.55 353.558C276.479 353.557 278.051 353.249 280.415 352.408C281.916 351.874 285.094 350.921 286.234 350.663C286.8 350.535 288.049 350.355 289.01 350.263C292.622 349.917 295.783 350.519 302.254 352.785C304.07 353.421 304.403 353.517 307.031 354.175C308.298 354.491 308.838 354.552 310.048 354.513C311.372 354.471 311.623 354.416 312.521 353.973C313.671 353.407 315.018 352.156 315.586 351.129C316.443 349.578 316.653 348.62 316.645 346.309C316.635 343.71 316.291 341.96 315.039 338.152C312.758 331.21 309.427 326.493 304.118 322.687Z" fill="#B9BECA"/>
<path fill-rule="evenodd" clip-rule="evenodd" d="M255.383 153.314C255.303 153.444 254.323 154.251 241.261 164.949C236.977 168.457 232.182 172.388 230.606 173.683C229.029 174.979 224.428 178.751 220.38 182.067C216.333 185.382 210.645 190.042 207.741 192.423C204.837 194.804 199.385 199.272 195.626 202.351C191.868 205.431 185.485 210.662 181.444 213.975C177.402 217.288 172.286 221.48 170.075 223.29C167.864 225.101 166.028 226.652 165.996 226.738C165.963 226.824 165.954 254.209 165.974 287.594L166.012 348.293L166.953 346.897C178.469 329.809 195.343 311.893 216.937 293.826C219.167 291.961 225.781 286.633 227.556 285.273C228.263 284.73 229.42 283.84 230.127 283.295C234.04 280.275 241.014 275.156 245.301 272.159C247.813 270.402 255.267 265.418 257.371 264.088C259.636 262.657 260.779 261.931 261.323 261.579C263.458 260.193 274.357 253.855 277.122 252.391C277.769 252.048 279.158 251.303 280.208 250.735C282.489 249.501 290.715 245.349 292.481 244.541C293.168 244.226 294.523 243.593 295.493 243.133C296.464 242.674 297.489 242.195 297.772 242.07C299.095 241.486 299.818 241.163 300.564 240.823C301.009 240.621 301.901 240.228 302.548 239.949C303.195 239.671 303.856 239.384 304.018 239.311C304.984 238.879 310.152 236.761 311.513 236.241C312.403 235.9 313.328 235.534 313.571 235.427C314.207 235.145 322.001 232.308 323.565 231.789C324.293 231.547 325.417 231.165 326.064 230.939C326.71 230.714 327.835 230.347 328.562 230.125C329.29 229.904 330.381 229.56 330.987 229.362C332.422 228.892 336.457 227.712 338.409 227.19C338.813 227.082 339.673 226.848 340.32 226.671C340.966 226.493 342.041 226.217 342.708 226.057C343.375 225.897 343.921 225.719 343.921 225.661C343.921 225.603 340.171 222.484 335.588 218.73C331.005 214.975 324.243 209.434 320.56 206.415C311.564 199.04 308.964 196.909 300.27 189.785C296.188 186.44 291.195 182.346 289.174 180.688C287.153 179.029 283.019 175.641 279.988 173.159C273.541 167.882 269.768 164.79 261.594 158.087C258.308 155.393 255.584 153.189 255.54 153.189C255.497 153.189 255.426 153.245 255.383 153.314ZM231.561 222.926L231.523 211.132L231.486 199.337H220.537H209.589V211.168V222.998L197.794 223.036L186 223.073V233.949V244.825L197.793 244.863L209.587 244.9L209.625 256.694L209.662 268.487L220.574 268.525L231.486 268.563L231.523 256.767L231.561 244.972L243.355 244.934L255.15 244.897V233.949V223.002L243.355 222.964L231.561 222.926Z" fill="#808080"/>
</g>
<defs>
<clipPath id="clip0_106_15">
<rect width="512" height="512" fill="white"/>
</clipPath>
</defs>
</svg>
